<?xml version="1.0"?>
<svg xmlns:rdf="http://www.w3.org/1999/02/22-rdf-syntax-ns#" xmlns="http://www.w3.org/2000/svg" xmlns:cc="http://web.resource.org/cc/" xmlns:xlink="http://www.w3.org/1999/xlink" xmlns:dc="http://purl.org/dc/elements/1.1/" xmlns:svg="http://www.w3.org/2000/svg" id="svg2" viewBox="0 0 128 128">
  <defs id="defs4">
    <linearGradient id="linearGradient2431">
      <stop id="stop2433" stop-color="#c6c6c6" offset="0"/>
      <stop id="stop2439" stop-color="#3f3f3f" offset=".13501"/>
      <stop id="stop2441" stop-color="#f9f9f9" offset=".64724"/>
      <stop id="stop2435" stop-color="#bcbcbc" offset="1"/>
    </linearGradient>
    <linearGradient id="linearGradient2353">
      <stop id="stop2355" stop-color="#fff" offset="0"/>
      <stop id="stop2357" stop-color="#fff" stop-opacity="0" offset="1"/>
    </linearGradient>
    <linearGradient id="linearGradient1387" y2="332.36" xlink:href="#linearGradient2431" spreadMethod="reflect" gradientUnits="userSpaceOnUse" x2="631.43" gradientTransform="matrix(.16646 1.1246e-17 -9.3168e-18 .29130 -5.2783 -49.597)" y1="332.36" x1="108.57"/>
    <radialGradient id="radialGradient1389" xlink:href="#linearGradient2431" spreadMethod="reflect" gradientUnits="userSpaceOnUse" cy="315.22" cx="370" gradientTransform="matrix(.10853 -1.2326e-16 2.8494e-17 .066191 16.154 21.361)" r="261.43"/>
    <radialGradient id="radialGradient1391" fy="53.448" spreadMethod="reflect" gradientUnits="userSpaceOnUse" cy="64.481" cx="59.083" gradientTransform="matrix(.99992 .012320 -.0065250 .52959 .42522 17.043)" r="38.703">
      <stop id="stop2823" stop-color="#0076c8" offset="0"/>
      <stop id="stop2825" stop-color="#79c8ff" offset="1"/>
    </radialGradient>
    <radialGradient id="radialGradient1393" gradientUnits="userSpaceOnUse" cy="135" cx="368.57" gradientTransform="matrix(.24795 5.5114e-17 -1.917e-16 .12123 -35.076 26.544)" r="233.56">
      <stop id="stop2519" stop-opacity="0" offset="0"/>
      <stop id="stop2525" stop-opacity="0" offset=".5"/>
      <stop id="stop2521" offset="1"/>
    </radialGradient>
    <linearGradient id="linearGradient1395" y2="57.94" xlink:href="#linearGradient2353" gradientUnits="userSpaceOnUse" x2="54.798" y1="27.844" x1="35.358"/>
    <linearGradient id="linearGradient1401" y2="56.956" xlink:href="#linearGradient2431" gradientUnits="userSpaceOnUse" x2="98.742" gradientTransform="matrix(.98861 1.6149e-16 2.1372e-16 1.1582 19.214 -60.763)" y1="66.886" x1="98.742"/>
    <radialGradient id="radialGradient1403" fx="170.44" fy="55.365" spreadMethod="reflect" gradientUnits="userSpaceOnUse" cy="76.295" cx="163.79" gradientTransform="matrix(.20838 -.071145 .087466 .17513 136.01 15.251)" r="36.145">
      <stop id="stop2230" stop-color="#934924" offset="0"/>
      <stop id="stop2232" stop-color="#a95c32" offset="1"/>
    </radialGradient>
    <linearGradient id="linearGradient1405" y2="29.934" xlink:href="#linearGradient2353" gradientUnits="userSpaceOnUse" x2="166.91" y1="-5.8554" x1="160.24"/>
    <linearGradient id="linearGradient2241" y2="58.647" gradientUnits="userSpaceOnUse" x2="-6.6423" gradientTransform="matrix(.99604 .096033 -.70511 1.0135 70.286 -.15050)" y1="104.79" x1="115.78">
      <stop id="stop2110" offset="0"/>
      <stop id="stop2112" stop-opacity="0" offset="1"/>
    </linearGradient>
    <radialGradient id="radialGradient2251" fx="58.985" fy="88.607" xlink:href="#linearGradient2353" gradientUnits="userSpaceOnUse" cy="83.721" cx="48.744" gradientTransform="matrix(1 1.1865e-17 -2.7543e-18 .22284 1.2928e-14 65.065)" r="27.291"/>
  </defs>
  <g id="layer1">
    <g id="g2255" fill-rule="evenodd">
      <path id="path1411" opacity=".19502" d="m49.441 79.043c-14.99 0.936-28.212 3.799-32.705 7.464-0.352 0.287-0.427 0.564-0.658 0.848-0.497 0.308-1.131 0.6-1.523 0.919-6.5898 5.376 4.726 10.244 25.247 10.872 9.983 0.306 20.291-0.463 29.03-1.938 0.136 0.102 0.208 0.215 0.437 0.3l1.405 0.519c-0.481 0.266-0.955 0.515-1.448 0.812-1.545 0.929-2.048 2.271 0.49 3.201l28.772 10.49c3.602 1.32 11.442 1.57 17.582 0.55 3.47-0.57 5.05-1.34 6.61-2.27 0.56-0.33 1.05-0.7 1.4-1.08 1.36-0.83 1.39-1.71-0.56-2.42l-29.351-10.735c-2.495-0.912-7.255-1.242-12.024-0.976l-2.437-0.89c4.041-1.224 7.312-2.608 9.207-4.154 0.392-0.32 0.526-0.63 0.794-0.945 0.458-0.278 1.043-0.548 1.396-0.836 5.991-4.887-5.816-9.36-26.337-9.988-5.13-0.157-10.331-0.055-15.327 0.257z" style="color:#000000" fill="url(#linearGradient2241)"/>
      <g id="g2238" transform="matrix(.80272 .17295 -.17295 .80272 4.0908 -2.9137)">
        <path id="rect2476" style="color:#000000" d="m109.49 62.944c-5.33-1.232-12.65-0.734-16.793 1.718-3.136 1.856-3.164 4.09-3.622 6.743-0.457 2.654 0.844 6.322 4.991 8.632l47.214 27.343c5.88 3.27 15.07 3.28 20.59 0.01 3.12-1.84 3.6-5.28 4.08-7.929 0.48-2.651 0.4-6.084-3.76-8.402l-47.76-26.272c-1.47-0.819-3.17-1.433-4.94-1.843z" stroke="#68422f" stroke-linecap="square" stroke-width=".5" fill="#66351b"/>
        <path id="path1884" d="m99.827 47.219c0 15.161-19.496 27.465-43.517 27.465s-43.516-12.304-43.516-27.465 19.495-27.465 43.516-27.465 43.517 12.304 43.517 27.465zm-4.352-2.563c0 11.623-17.546 21.056-39.165 21.056s-39.164-9.433-39.164-21.056c0-11.624 17.545-21.057 39.164-21.057s39.165 9.433 39.165 21.057z" style="color:#000000" fill="url(#linearGradient1387)"/>
        <path id="path1886" d="m99.827 42.225c0 13.783-19.496 24.969-43.517 24.969s-43.516-11.186-43.516-24.969c0-13.782 19.495-24.968 43.516-24.968s43.517 11.186 43.517 24.968zm-4.352-2.33c0 10.567-17.546 19.142-39.165 19.142s-39.164-8.575-39.164-19.142 17.545-19.142 39.164-19.142 39.165 8.575 39.165 19.142z" style="color:#000000" fill="url(#radialGradient1389)"/>
        <path id="path2371" opacity=".7" d="m56.068 23.594c20.031 0 36.366 8.128 38.688 18.562-2.312 9.492-18.65 16.875-38.688 16.875s-36.407-7.383-38.718-16.875c2.321-10.434 18.688-18.562 38.718-18.562z" style="color:#000000" fill="url(#radialGradient1391)"/>
        <path id="path1888" opacity=".7" d="m56.31 23.689c-20.043 0-36.572 7.834-38.873 17.919 0.111 0.442 0.285 0.871 0.46 1.302 3.467-9.384 19.331-16.49 38.413-16.49 19.083 0 34.953 7.106 38.419 16.49 0.174-0.43 0.344-0.861 0.455-1.302-2.301-10.085-18.83-17.919-38.874-17.919z" style="color:#000000" fill="url(#radialGradient1393)"/>
        <path id="path2389" d="m74.499 56.911a24.244 21.592 0 1 1 -48.488 0 24.244 21.592 0 1 1 48.488 0z" style="color:#000000" fill="url(#linearGradient1395)" transform="matrix(-1 .13435 0 -.593 118.44 74.184)"/>
        <path id="path1890" d="m99.827 42.225c0 13.783-19.496 24.969-43.517 24.969s-43.516-11.186-43.516-24.969c0-13.782 19.495-24.968 43.516-24.968s43.517 11.186 43.517 24.968zm-4.352-2.33c0 10.567-17.546 19.142-39.165 19.142s-39.164-8.575-39.164-19.142 17.545-19.142 39.164-19.142 39.165 8.575 39.165 19.142z" style="color:#000000" fill="url(#radialGradient1389)"/>
        <path id="path2377" d="m74.499 56.911a24.244 21.592 0 1 1 -48.488 0 24.244 21.592 0 1 1 48.488 0z" style="color:#000000" fill="url(#linearGradient1395)" transform="matrix(1 -.13435 0 .593 -5.5558 12.11)"/>
        <rect id="rect2462" style="color:#000000" transform="matrix(.87252 .48857 -.62732 .77876 0 0)" ry="5.7037" height="11.407" width="23.968" y="5.2986" x="106.35" fill="url(#linearGradient1401)"/>
        <rect id="rect2413" ry="11.586" style="color:#000000" transform="matrix(.87357 .48671 -.86055 .50936 0 0)" height="23.172" width="78.068" y="-.41123" x="118.61" fill="url(#radialGradient1403)"/>
        <path id="path2472" d="m144.41 10.562c-7.29 0-13.1 5.829-13.1 13.126 0 7.296 5.8 13.093 13.1 13.093h63.15c7.3 0 13.1-5.797 13.1-13.093s-5.81-13.126-13.1-13.126h-63.15z" style="color:#000000" fill="url(#linearGradient1405)" transform="matrix(.72710 .40510 -.65058 .38508 15.546 2.0069)"/>
      </g>
      <path id="path2243" opacity=".20419" style="color:#000000" d="m75.535 83.721a26.791 5.5814 0 1 1 -53.582 0 26.791 5.5814 0 1 1 53.582 0z" transform="matrix(1.084 .065093 -1.4084 1.285 115.84 -21.821)" fill="url(#radialGradient2251)"/>
    </g>
  </g>
  <metadata>
    <rdf:RDF>
      <cc:Work>
        <dc:format>image/svg+xml</dc:format>
        <dc:type rdf:resource="http://purl.org/dc/dcmitype/StillImage"/>
        <cc:license rdf:resource="http://creativecommons.org/licenses/publicdomain/"/>
        <dc:publisher>
          <cc:Agent rdf:about="http://openclipart.org/">
            <dc:title>Openclipart</dc:title>
          </cc:Agent>
        </dc:publisher>
        <dc:title>magnifying glass</dc:title>
        <dc:date>2006-12-03T08:54:13</dc:date>
        <dc:description>clip art, clipart, enlarge, enlarge, glass, glass, icon, icon, image, lens, lens, magnifying, magnifying, media, optic, optic, png, public domain, svg, tool, tool, </dc:description>
        <dc:source>http://openclipart.org/detail/1752/magnifying-glass-by-thestructorr-1752</dc:source>
        <dc:creator>
          <cc:Agent>
            <dc:title>TheStructorr</dc:title>
          </cc:Agent>
        </dc:creator>
        <dc:subject>
          <rdf:Bag>
            <rdf:li>clip art</rdf:li>
            <rdf:li>clipart</rdf:li>
            <rdf:li>enlarge</rdf:li>
            <rdf:li>glass</rdf:li>
            <rdf:li>icon</rdf:li>
            <rdf:li>image</rdf:li>
            <rdf:li>lens</rdf:li>
            <rdf:li>magnifying</rdf:li>
            <rdf:li>media</rdf:li>
            <rdf:li>optic</rdf:li>
            <rdf:li>png</rdf:li>
            <rdf:li>public domain</rdf:li>
            <rdf:li>svg</rdf:li>
            <rdf:li>tool</rdf:li>
          </rdf:Bag>
        </dc:subject>
      </cc:Work>
      <cc:License rdf:about="http://creativecommons.org/licenses/publicdomain/">
        <cc:permits rdf:resource="http://creativecommons.org/ns#Reproduction"/>
        <cc:permits rdf:resource="http://creativecommons.org/ns#Distribution"/>
        <cc:permits rdf:resource="http://creativecommons.org/ns#DerivativeWorks"/>
      </cc:License>
    </rdf:RDF>
  </metadata>
</svg>
